<mxfile host="Electron" agent="Mozilla/5.0 (Macintosh; Intel Mac OS X 10_15_7) AppleWebKit/537.36 (KHTML, like Gecko) draw.io/28.1.2 Chrome/138.0.7204.243 Electron/37.4.0 Safari/537.36" version="28.1.2">
  <diagram name="Page-1" id="Rs4Zjphq0ylOjOa-WiTj">
    <mxGraphModel dx="2186" dy="805" grid="1" gridSize="10" guides="1" tooltips="1" connect="1" arrows="1" fold="1" page="1" pageScale="1" pageWidth="850" pageHeight="1100" math="0" shadow="0">
      <root>
        <mxCell id="0" />
        <mxCell id="1" parent="0" />
        <mxCell id="YMCOmTO01SK4iDtYRhF4-2" value="Управление депозитных&lt;br&gt;продуктов&amp;nbsp;" style="shape=umlActor;verticalLabelPosition=bottom;verticalAlign=top;html=1;outlineConnect=0;fontStyle=1" vertex="1" parent="1">
          <mxGeometry y="130" width="30" height="60" as="geometry" />
        </mxCell>
        <mxCell id="YMCOmTO01SK4iDtYRhF4-25" style="edgeStyle=orthogonalEdgeStyle;rounded=0;orthogonalLoop=1;jettySize=auto;html=1;exitX=1;exitY=0.5;exitDx=0;exitDy=0;" edge="1" parent="1" source="YMCOmTO01SK4iDtYRhF4-4" target="YMCOmTO01SK4iDtYRhF4-7">
          <mxGeometry relative="1" as="geometry">
            <Array as="points">
              <mxPoint x="630" y="300" />
            </Array>
          </mxGeometry>
        </mxCell>
        <mxCell id="YMCOmTO01SK4iDtYRhF4-26" value="отправка СМС" style="edgeLabel;html=1;align=center;verticalAlign=middle;resizable=0;points=[];" vertex="1" connectable="0" parent="YMCOmTO01SK4iDtYRhF4-25">
          <mxGeometry x="-0.2545" y="1" relative="1" as="geometry">
            <mxPoint x="12" y="-9" as="offset" />
          </mxGeometry>
        </mxCell>
        <mxCell id="YMCOmTO01SK4iDtYRhF4-4" value="АБС" style="rounded=0;whiteSpace=wrap;html=1;fillColor=#dae8fc;strokeColor=#6c8ebf;" vertex="1" parent="1">
          <mxGeometry x="230" y="230" width="400" height="160" as="geometry" />
        </mxCell>
        <mxCell id="YMCOmTO01SK4iDtYRhF4-17" value="" style="edgeStyle=orthogonalEdgeStyle;rounded=0;orthogonalLoop=1;jettySize=auto;html=1;entryX=0.75;entryY=1;entryDx=0;entryDy=0;" edge="1" parent="1" source="YMCOmTO01SK4iDtYRhF4-5" target="YMCOmTO01SK4iDtYRhF4-4">
          <mxGeometry relative="1" as="geometry">
            <mxPoint x="350" y="490" as="targetPoint" />
          </mxGeometry>
        </mxCell>
        <mxCell id="YMCOmTO01SK4iDtYRhF4-19" value="заявка" style="edgeLabel;html=1;align=center;verticalAlign=middle;resizable=0;points=[];" vertex="1" connectable="0" parent="YMCOmTO01SK4iDtYRhF4-17">
          <mxGeometry x="0.1394" y="1" relative="1" as="geometry">
            <mxPoint x="-21" y="11" as="offset" />
          </mxGeometry>
        </mxCell>
        <mxCell id="YMCOmTO01SK4iDtYRhF4-5" value="Call-center система" style="rounded=0;whiteSpace=wrap;html=1;fillColor=#fff2cc;strokeColor=#d6b656;" vertex="1" parent="1">
          <mxGeometry x="430" y="450" width="140" height="80" as="geometry" />
        </mxCell>
        <mxCell id="YMCOmTO01SK4iDtYRhF4-6" value="Почтовый сервис" style="rounded=0;whiteSpace=wrap;html=1;fillColor=#fff2cc;strokeColor=#d6b656;" vertex="1" parent="1">
          <mxGeometry x="-20" y="560" width="160" height="80" as="geometry" />
        </mxCell>
        <mxCell id="YMCOmTO01SK4iDtYRhF4-50" value="" style="edgeStyle=orthogonalEdgeStyle;rounded=0;orthogonalLoop=1;jettySize=auto;html=1;entryX=0.5;entryY=0;entryDx=0;entryDy=0;entryPerimeter=0;" edge="1" parent="1" source="YMCOmTO01SK4iDtYRhF4-7" target="YMCOmTO01SK4iDtYRhF4-40">
          <mxGeometry relative="1" as="geometry">
            <mxPoint x="860" y="420" as="targetPoint" />
          </mxGeometry>
        </mxCell>
        <mxCell id="YMCOmTO01SK4iDtYRhF4-51" value="СМС" style="edgeLabel;html=1;align=center;verticalAlign=middle;resizable=0;points=[];" vertex="1" connectable="0" parent="YMCOmTO01SK4iDtYRhF4-50">
          <mxGeometry x="-0.1275" y="2" relative="1" as="geometry">
            <mxPoint as="offset" />
          </mxGeometry>
        </mxCell>
        <mxCell id="YMCOmTO01SK4iDtYRhF4-7" value="СМС сервис" style="rounded=0;whiteSpace=wrap;html=1;fillColor=#fff2cc;strokeColor=#d6b656;" vertex="1" parent="1">
          <mxGeometry x="835" y="260" width="120" height="80" as="geometry" />
        </mxCell>
        <mxCell id="YMCOmTO01SK4iDtYRhF4-31" style="edgeStyle=orthogonalEdgeStyle;rounded=0;orthogonalLoop=1;jettySize=auto;html=1;exitX=0.5;exitY=0.5;exitDx=0;exitDy=0;exitPerimeter=0;entryX=0;entryY=0.75;entryDx=0;entryDy=0;" edge="1" parent="1" source="YMCOmTO01SK4iDtYRhF4-8" target="YMCOmTO01SK4iDtYRhF4-4">
          <mxGeometry relative="1" as="geometry" />
        </mxCell>
        <mxCell id="YMCOmTO01SK4iDtYRhF4-32" value="управление&lt;br&gt;кредитами" style="edgeLabel;html=1;align=center;verticalAlign=middle;resizable=0;points=[];" vertex="1" connectable="0" parent="YMCOmTO01SK4iDtYRhF4-31">
          <mxGeometry x="0.2174" y="-1" relative="1" as="geometry">
            <mxPoint x="-9" y="-1" as="offset" />
          </mxGeometry>
        </mxCell>
        <mxCell id="YMCOmTO01SK4iDtYRhF4-36" style="edgeStyle=orthogonalEdgeStyle;rounded=0;orthogonalLoop=1;jettySize=auto;html=1;exitX=0.5;exitY=0.5;exitDx=0;exitDy=0;exitPerimeter=0;entryX=0.75;entryY=0;entryDx=0;entryDy=0;" edge="1" parent="1" source="YMCOmTO01SK4iDtYRhF4-8" target="YMCOmTO01SK4iDtYRhF4-6">
          <mxGeometry relative="1" as="geometry" />
        </mxCell>
        <mxCell id="YMCOmTO01SK4iDtYRhF4-37" value="письма&lt;br&gt;другие отделы" style="edgeLabel;html=1;align=center;verticalAlign=middle;resizable=0;points=[];" vertex="1" connectable="0" parent="YMCOmTO01SK4iDtYRhF4-36">
          <mxGeometry x="0.3385" relative="1" as="geometry">
            <mxPoint as="offset" />
          </mxGeometry>
        </mxCell>
        <mxCell id="YMCOmTO01SK4iDtYRhF4-8" value="Управление кредитных&lt;br&gt;продуктов&amp;nbsp;" style="shape=umlActor;verticalLabelPosition=bottom;verticalAlign=top;html=1;outlineConnect=0;fontStyle=1" vertex="1" parent="1">
          <mxGeometry x="85" y="320" width="30" height="60" as="geometry" />
        </mxCell>
        <mxCell id="YMCOmTO01SK4iDtYRhF4-15" value="" style="edgeStyle=orthogonalEdgeStyle;rounded=0;orthogonalLoop=1;jettySize=auto;html=1;" edge="1" parent="1" source="YMCOmTO01SK4iDtYRhF4-9" target="YMCOmTO01SK4iDtYRhF4-5">
          <mxGeometry relative="1" as="geometry" />
        </mxCell>
        <mxCell id="YMCOmTO01SK4iDtYRhF4-18" value="обращение" style="edgeLabel;html=1;align=center;verticalAlign=middle;resizable=0;points=[];" vertex="1" connectable="0" parent="YMCOmTO01SK4iDtYRhF4-15">
          <mxGeometry x="0.2833" y="-3" relative="1" as="geometry">
            <mxPoint x="17" y="13" as="offset" />
          </mxGeometry>
        </mxCell>
        <mxCell id="YMCOmTO01SK4iDtYRhF4-9" value="Call-центр" style="shape=umlActor;verticalLabelPosition=bottom;verticalAlign=top;html=1;outlineConnect=0;fontStyle=1" vertex="1" parent="1">
          <mxGeometry x="690" y="460" width="30" height="60" as="geometry" />
        </mxCell>
        <mxCell id="YMCOmTO01SK4iDtYRhF4-14" value="" style="edgeStyle=orthogonalEdgeStyle;rounded=0;orthogonalLoop=1;jettySize=auto;html=1;" edge="1" parent="1" source="YMCOmTO01SK4iDtYRhF4-12" target="YMCOmTO01SK4iDtYRhF4-7">
          <mxGeometry relative="1" as="geometry" />
        </mxCell>
        <mxCell id="YMCOmTO01SK4iDtYRhF4-21" value="поддержка" style="edgeLabel;html=1;align=center;verticalAlign=middle;resizable=0;points=[];" vertex="1" connectable="0" parent="YMCOmTO01SK4iDtYRhF4-14">
          <mxGeometry x="0.1053" y="3" relative="1" as="geometry">
            <mxPoint x="171" y="68" as="offset" />
          </mxGeometry>
        </mxCell>
        <mxCell id="YMCOmTO01SK4iDtYRhF4-22" style="edgeStyle=orthogonalEdgeStyle;rounded=0;orthogonalLoop=1;jettySize=auto;html=1;entryX=0.75;entryY=0;entryDx=0;entryDy=0;exitX=0.5;exitY=0.5;exitDx=0;exitDy=0;exitPerimeter=0;" edge="1" parent="1">
          <mxGeometry relative="1" as="geometry">
            <mxPoint x="350" y="105" as="sourcePoint" />
            <mxPoint x="380" y="230" as="targetPoint" />
            <Array as="points">
              <mxPoint x="380" y="105" />
            </Array>
          </mxGeometry>
        </mxCell>
        <mxCell id="YMCOmTO01SK4iDtYRhF4-24" value="разработка/&lt;br&gt;сопровождение" style="edgeLabel;html=1;align=center;verticalAlign=middle;resizable=0;points=[];" vertex="1" connectable="0" parent="YMCOmTO01SK4iDtYRhF4-22">
          <mxGeometry x="0.3161" y="4" relative="1" as="geometry">
            <mxPoint as="offset" />
          </mxGeometry>
        </mxCell>
        <mxCell id="YMCOmTO01SK4iDtYRhF4-12" value="IT-отдел" style="shape=umlActor;verticalLabelPosition=bottom;verticalAlign=top;html=1;outlineConnect=0;fontStyle=1" vertex="1" parent="1">
          <mxGeometry x="280" y="70" width="30" height="70" as="geometry" />
        </mxCell>
        <mxCell id="YMCOmTO01SK4iDtYRhF4-28" style="edgeStyle=orthogonalEdgeStyle;rounded=0;orthogonalLoop=1;jettySize=auto;html=1;exitX=0.5;exitY=0.5;exitDx=0;exitDy=0;exitPerimeter=0;entryX=0.25;entryY=1;entryDx=0;entryDy=0;" edge="1" parent="1" source="YMCOmTO01SK4iDtYRhF4-13" target="YMCOmTO01SK4iDtYRhF4-4">
          <mxGeometry relative="1" as="geometry" />
        </mxCell>
        <mxCell id="YMCOmTO01SK4iDtYRhF4-29" value="открытие&lt;br&gt;депозита" style="edgeLabel;html=1;align=center;verticalAlign=middle;resizable=0;points=[];" vertex="1" connectable="0" parent="YMCOmTO01SK4iDtYRhF4-28">
          <mxGeometry x="0.1636" relative="1" as="geometry">
            <mxPoint as="offset" />
          </mxGeometry>
        </mxCell>
        <mxCell id="YMCOmTO01SK4iDtYRhF4-30" style="edgeStyle=orthogonalEdgeStyle;rounded=0;orthogonalLoop=1;jettySize=auto;html=1;exitX=0.5;exitY=0.5;exitDx=0;exitDy=0;exitPerimeter=0;entryX=1;entryY=0.5;entryDx=0;entryDy=0;" edge="1" parent="1" source="YMCOmTO01SK4iDtYRhF4-13" target="YMCOmTO01SK4iDtYRhF4-6">
          <mxGeometry relative="1" as="geometry" />
        </mxCell>
        <mxCell id="YMCOmTO01SK4iDtYRhF4-35" value="письма в&lt;br&gt;бэк-офис" style="edgeLabel;html=1;align=center;verticalAlign=middle;resizable=0;points=[];" vertex="1" connectable="0" parent="YMCOmTO01SK4iDtYRhF4-30">
          <mxGeometry x="0.3379" y="2" relative="1" as="geometry">
            <mxPoint x="12" y="-2" as="offset" />
          </mxGeometry>
        </mxCell>
        <mxCell id="YMCOmTO01SK4iDtYRhF4-13" value="Фронт-офис" style="shape=umlActor;verticalLabelPosition=bottom;verticalAlign=top;html=1;outlineConnect=0;fontStyle=1" vertex="1" parent="1">
          <mxGeometry x="270" y="570" width="30" height="60" as="geometry" />
        </mxCell>
        <mxCell id="YMCOmTO01SK4iDtYRhF4-33" style="edgeStyle=orthogonalEdgeStyle;rounded=0;orthogonalLoop=1;jettySize=auto;html=1;exitX=0.5;exitY=0.5;exitDx=0;exitDy=0;exitPerimeter=0;entryX=0.15;entryY=0.013;entryDx=0;entryDy=0;entryPerimeter=0;" edge="1" parent="1" source="YMCOmTO01SK4iDtYRhF4-2" target="YMCOmTO01SK4iDtYRhF4-4">
          <mxGeometry relative="1" as="geometry">
            <mxPoint x="210" y="260" as="targetPoint" />
            <Array as="points">
              <mxPoint x="15" y="180" />
              <mxPoint x="290" y="180" />
            </Array>
          </mxGeometry>
        </mxCell>
        <mxCell id="YMCOmTO01SK4iDtYRhF4-34" value="управление&lt;br&gt;депозитами" style="edgeLabel;html=1;align=center;verticalAlign=middle;resizable=0;points=[];" vertex="1" connectable="0" parent="YMCOmTO01SK4iDtYRhF4-33">
          <mxGeometry x="-0.0265" y="2" relative="1" as="geometry">
            <mxPoint x="2" as="offset" />
          </mxGeometry>
        </mxCell>
        <mxCell id="YMCOmTO01SK4iDtYRhF4-38" style="edgeStyle=orthogonalEdgeStyle;rounded=0;orthogonalLoop=1;jettySize=auto;html=1;exitX=0.5;exitY=0.5;exitDx=0;exitDy=0;exitPerimeter=0;entryX=0.125;entryY=0;entryDx=0;entryDy=0;entryPerimeter=0;fontStyle=0" edge="1" parent="1" source="YMCOmTO01SK4iDtYRhF4-2" target="YMCOmTO01SK4iDtYRhF4-6">
          <mxGeometry relative="1" as="geometry" />
        </mxCell>
        <mxCell id="YMCOmTO01SK4iDtYRhF4-39" value="письма&lt;br&gt;другие отделы" style="edgeLabel;html=1;align=center;verticalAlign=middle;resizable=0;points=[];" vertex="1" connectable="0" parent="YMCOmTO01SK4iDtYRhF4-38">
          <mxGeometry x="-0.1833" y="-1" relative="1" as="geometry">
            <mxPoint x="1" y="-33" as="offset" />
          </mxGeometry>
        </mxCell>
        <mxCell id="YMCOmTO01SK4iDtYRhF4-41" style="edgeStyle=orthogonalEdgeStyle;rounded=0;orthogonalLoop=1;jettySize=auto;html=1;exitX=0.5;exitY=0.5;exitDx=0;exitDy=0;exitPerimeter=0;" edge="1" parent="1" source="YMCOmTO01SK4iDtYRhF4-40" target="YMCOmTO01SK4iDtYRhF4-13">
          <mxGeometry relative="1" as="geometry" />
        </mxCell>
        <mxCell id="YMCOmTO01SK4iDtYRhF4-42" value="открытие&lt;br&gt;депозита" style="edgeLabel;html=1;align=center;verticalAlign=middle;resizable=0;points=[];" vertex="1" connectable="0" parent="YMCOmTO01SK4iDtYRhF4-41">
          <mxGeometry x="0.132" y="-1" relative="1" as="geometry">
            <mxPoint as="offset" />
          </mxGeometry>
        </mxCell>
        <mxCell id="YMCOmTO01SK4iDtYRhF4-43" style="edgeStyle=orthogonalEdgeStyle;rounded=0;orthogonalLoop=1;jettySize=auto;html=1;exitX=0.5;exitY=0.5;exitDx=0;exitDy=0;exitPerimeter=0;entryX=1;entryY=0.3333333333333333;entryDx=0;entryDy=0;entryPerimeter=0;" edge="1" parent="1" source="YMCOmTO01SK4iDtYRhF4-40" target="YMCOmTO01SK4iDtYRhF4-9">
          <mxGeometry relative="1" as="geometry">
            <Array as="points">
              <mxPoint x="780" y="600" />
              <mxPoint x="780" y="480" />
            </Array>
          </mxGeometry>
        </mxCell>
        <mxCell id="YMCOmTO01SK4iDtYRhF4-44" value="обращение" style="edgeLabel;html=1;align=center;verticalAlign=middle;resizable=0;points=[];" vertex="1" connectable="0" parent="YMCOmTO01SK4iDtYRhF4-43">
          <mxGeometry x="-0.018" relative="1" as="geometry">
            <mxPoint y="-6" as="offset" />
          </mxGeometry>
        </mxCell>
        <mxCell id="YMCOmTO01SK4iDtYRhF4-40" value="Клиент-банка" style="shape=umlActor;verticalLabelPosition=bottom;verticalAlign=top;html=1;outlineConnect=0;fontSize=14;fontStyle=1;fontColor=#FF5E23;" vertex="1" parent="1">
          <mxGeometry x="880" y="570" width="30" height="60" as="geometry" />
        </mxCell>
      </root>
    </mxGraphModel>
  </diagram>
</mxfile>
